<svg width="112" height="121" viewBox="0 0 112 121" fill="none" xmlns="http://www.w3.org/2000/svg">
<path d="M108.841 89.9397L75.2192 36.4945C73.9173 34.421 73.2267 32.0202 73.2275 29.5694V8.64286H77.4154C79.7328 8.64286 81.7218 6.85487 81.8376 4.5294C81.8655 3.94487 81.7751 3.36072 81.5714 2.81236C81.3679 2.264 81.0554 1.76285 80.6528 1.33932C80.2504 0.915793 79.7665 0.578694 79.2303 0.34847C78.6942 0.118246 78.1171 -0.000323445 77.5339 6.62665e-07H34.5912C32.2739 6.62665e-07 30.2849 1.78799 30.1691 4.11346C30.1411 4.69777 30.2316 5.28168 30.435 5.82988C30.6385 6.37805 30.9507 6.87907 31.3528 7.30257C31.7549 7.72607 32.2386 8.06322 32.7745 8.29361C33.3103 8.52399 33.8871 8.6428 34.4701 8.64286H38.7765V29.5694C38.7781 32.0199 38.0864 34.4202 36.7821 36.4918L3.16276 89.9397C1.21845 92.975 0.129292 96.4821 0.0108124 100.088C-0.10764 103.695 0.749006 107.266 2.48989 110.423C6.05879 117 13.0351 121 20.5094 121H91.4946C98.9689 121 105.945 117 109.514 110.41C111.252 107.254 112.108 103.685 111.989 100.082C111.871 96.4781 110.783 92.9736 108.841 89.9397ZM44.0679 41.1076C46.2402 37.6542 47.3919 33.6531 47.3892 29.5694V9.72322C47.3892 9.43668 47.5025 9.16189 47.7047 8.9593C47.9065 8.75667 48.1803 8.64286 48.4658 8.64286H63.5381C63.8237 8.64286 64.0974 8.75667 64.2993 8.9593C64.5014 9.16189 64.6147 9.43668 64.6147 9.72322V29.5694C64.6129 33.6534 65.7656 37.6545 67.9387 41.1076L83.4955 65.8289C83.7011 66.1559 83.8158 66.5324 83.8268 66.9192C83.8381 67.306 83.7458 67.6887 83.5593 68.0271C83.3728 68.3658 83.0993 68.6478 82.7669 68.8441C82.4348 69.0405 82.0561 69.1437 81.6707 69.1429H30.3333C29.9481 69.1431 29.5697 69.0397 29.2379 68.8431C28.906 68.6467 28.6328 68.3645 28.4468 68.026C28.2606 67.6873 28.1683 67.3052 28.1798 66.9187C28.1911 66.5322 28.3055 66.1559 28.5112 65.8289L44.0679 41.1076Z" fill="white"/>
</svg>
