<svg width="513" height="513" viewBox="0 0 513 513" fill="currentColor" xmlns="http://www.w3.org/2000/svg">
<path d="M452.82 365.5L327.9 167.62C323.063 159.943 320.497 151.054 320.5 141.98V64.5H336.06C344.67 64.5 352.06 57.88 352.49 49.27C352.594 47.1058 352.258 44.943 351.501 42.9127C350.745 40.8824 349.584 39.0269 348.088 37.4588C346.593 35.8907 344.795 34.6426 342.803 33.7902C340.811 32.9378 338.667 32.4988 336.5 32.5H176.95C168.34 32.5 160.95 39.12 160.52 47.73C160.416 49.8934 160.752 52.0553 161.508 54.085C162.264 56.1146 163.424 57.9696 164.918 59.5376C166.412 61.1056 168.209 62.3539 170.2 63.2069C172.191 64.0599 174.334 64.4998 176.5 64.5H192.5V141.98C192.506 151.053 189.936 159.94 185.09 167.61L60.18 365.5C52.9561 376.738 48.9094 389.723 48.4692 403.075C48.0291 416.428 51.2119 429.65 57.68 441.34C70.94 465.69 96.86 480.5 124.63 480.5H388.37C416.14 480.5 442.06 465.69 455.32 441.29C461.778 429.606 464.956 416.393 464.516 403.05C464.076 389.708 460.034 376.733 452.82 365.5V365.5ZM212.16 184.7C220.231 171.914 224.51 157.1 224.5 141.98V68.5C224.5 67.4391 224.921 66.4217 225.672 65.6716C226.422 64.9214 227.439 64.5 228.5 64.5H284.5C285.561 64.5 286.578 64.9214 287.328 65.6716C288.079 66.4217 288.5 67.4391 288.5 68.5V141.98C288.493 157.101 292.776 171.915 300.85 184.7L358.65 276.23C359.414 277.441 359.84 278.835 359.881 280.267C359.923 281.699 359.58 283.116 358.887 284.369C358.194 285.623 357.178 286.667 355.943 287.394C354.709 288.121 353.302 288.503 351.87 288.5H161.13C159.699 288.501 158.293 288.118 157.06 287.39C155.827 286.663 154.812 285.618 154.121 284.365C153.429 283.111 153.086 281.696 153.129 280.265C153.171 278.834 153.596 277.441 154.36 276.23L212.16 184.7Z" fill="#31AFE1"/>
</svg>
